<?xml version="1.0" encoding="UTF-8" standalone="no"?>
<!DOCTYPE svg PUBLIC "-//W3C//DTD SVG 1.1//EN" "http://www.w3.org/Graphics/SVG/1.1/DTD/svg11.dtd">
<svg width="100%" height="100%" viewBox="0 0 1024 1024" version="1.1" xmlns="http://www.w3.org/2000/svg" xmlns:xlink="http://www.w3.org/1999/xlink" xml:space="preserve" style="fill-rule:evenodd;clip-rule:evenodd;stroke-linecap:round;stroke-linejoin:round;stroke-miterlimit:1.5;">
    <g transform="matrix(6.13174,0,0,6.13174,0,0)">
        <g transform="matrix(0.994048,0,0,0.988166,0.994048,0.988166)">
            <g id="Layer1">
                <rect x="-1" y="-1" width="168" height="169" style="fill:rgb(238,118,36);"/>
            </g>
        </g>
        <g id="Layer2">
            <path d="M78.5,16C111.339,16 138,42.661 138,75.5C138,108.339 111.339,135 78.5,135C45.661,135 19,108.339 19,75.5C19,42.661 45.661,16 78.5,16ZM115.932,112.035L94.46,86.866C94.46,86.866 110.027,86.832 110.156,86.829C111.883,86.961 113.648,86.367 115.072,85.172C118.138,82.609 118.55,78.048 115.984,74.972L82.629,35.83C82.31,35.41 81.95,35.014 81.529,34.657C81.478,34.619 81.418,34.59 81.37,34.55C81.354,34.536 81.334,34.526 81.318,34.517C80.951,34.232 80.574,33.984 80.177,33.776C80.154,33.764 80.126,33.757 80.1,33.748C79.704,33.55 79.298,33.385 78.887,33.267C78.812,33.25 78.73,33.234 78.652,33.215C78.288,33.132 77.919,33.046 77.547,33.018C77.321,32.99 77.092,33.007 76.868,33.007C76.642,33.007 76.421,32.989 76.192,33.018C75.822,33.046 75.456,33.132 75.086,33.15C75.009,33.168 74.935,33.184 74.857,33.201C74.439,33.319 74.035,33.484 73.642,33.682C73.614,33.694 73.59,33.701 73.567,33.682C73.165,33.888 72.78,34.139 72.423,34.423C72.399,34.435 72.39,34.446 72.374,34.456C72.323,34.497 72.264,34.526 72.212,34.588C71.791,34.944 71.431,35.338 71.107,35.752L40,72.291L59.029,72.291L76.868,51.381L94.769,72.391L78.842,72.402C78.783,72.402 78.726,72.419 78.667,72.402C78.289,72.402 77.906,72.436 77.529,72.495C77.421,72.518 77.31,72.541 77.208,72.566C76.865,72.636 76.523,72.74 76.188,72.83C76.064,72.874 75.948,72.924 75.838,72.984C75.532,73.112 75.239,73.264 74.953,73.447C74.827,73.528 74.699,73.619 74.578,73.71C74.424,73.816 74.265,73.898 74.123,74.011C74.023,74.099 73.943,74.205 73.845,74.302C73.73,74.41 73.617,74.528 73.506,74.697C73.288,74.922 73.088,75.159 72.91,75.395C72.82,75.534 72.738,75.665 72.653,75.801C72.486,76.061 72.343,76.322 72.216,76.59C72.139,76.756 72.076,76.926 72.011,77.096C71.916,77.357 71.82,77.619 71.76,77.892C71.711,78.083 71.677,78.288 71.649,78.55C71.603,78.815 71.572,79.08 71.557,79.347C71.549,79.444 71.527,79.527 71.527,79.622C71.527,79.754 71.527,79.885 71.527,80.017C71.543,80.28 71.527,80.543 71.659,80.75C71.691,81.013 71.79,81.276 71.79,81.48C71.841,81.743 71.922,81.875 71.922,82.138C72.016,82.401 72.185,82.664 72.185,82.912C72.265,83.043 72.316,83.175 72.448,83.372C72.61,83.635 72.843,83.899 72.974,84.162C73.034,84.293 73.106,84.293 73.106,84.383L96.797,112.153L115.823,112.153L115.823,112.035L115.932,112.035Z" style="fill:rgb(250,218,196);"/>
        </g>
        <g id="Layer3">
            <g transform="matrix(1.36735,0,0,1.36735,-35.4286,-38.2653)">
                <circle cx="115.5" cy="120.5" r="24.5" style="fill:rgb(238,118,36);"/>
            </g>
            <g transform="matrix(1.02,0,0,1.02,9.28,7.16)">
                <circle cx="111" cy="117" r="25" style="fill:rgb(238,118,36);"/>
            </g>
            <path d="M122.5,101C136.574,101 148,112.426 148,126.5C148,140.574 136.574,152 122.5,152C108.426,152 97,140.574 97,126.5C97,112.426 108.426,101 122.5,101ZM122.5,108C132.71,108 141,116.29 141,126.5C141,136.71 132.71,145 122.5,145C112.29,145 104,136.71 104,126.5C104,116.29 112.29,108 122.5,108Z" style="fill:white;"/>
            <path d="M113.5,121.5L109,126L121,138L136,123L131,118L120.5,128.5L113.5,121.5" style="fill:white;stroke:white;stroke-width:2px;"/>
        </g>
    </g>
    <g id="Mask" transform="matrix(8.46281,0,0,8.46281,-16.9256,-25.3884)">
        <path d="M123,29.62C123,14.928 111.072,3 96.38,3L28.62,3C13.928,3 2,14.928 2,29.62L2,97.38C2,112.072 13.928,124 28.62,124L96.38,124C111.072,124 123,112.072 123,97.38L123,29.62Z" style="fill:white;"/>
    </g>
</svg>
